<svg xmlns="http://www.w3.org/2000/svg" preserveAspectRatio="xMinYMin meet"
viewBox="0 0 1600 600">
<circle opacity="0.1" fill="#FFFFFF" cx="20" cy="100" r="16"/>
<circle opacity="0.1" fill="#FFFFFF" cx="40" cy="230" r="20"/>
<circle opacity="0.02" fill="#FFFFFF" cx="90" cy="350" r="30"/>
<circle opacity="0.03" fill="#FFFFFF" cx="120" cy="310" r="50"/>
<circle opacity="0.05" fill="#FFFFFF" cx="180" cy="200" r="40"/>
<circle opacity="0.04" fill="#FFFFFF" cx="230" cy="520" r="44"/>
<circle opacity="0.1" fill="#FFFFFF" cx="240" cy="100" r="28"/>
<circle opacity="0.03" fill="#FFFFFF" cx="260" cy="460" r="18"/>
<circle opacity="0.03" fill="#FFFFFF" cx="280" cy="400" r="42"/>
<circle opacity="0.02" fill="#FFFFFF" cx="296" cy="440" r="30"/>
<circle opacity="0.1" fill="#FFFFFF" cx="300" cy="180" r="18"/>
<circle opacity="0.1" fill="#FFFFFF" cx="310" cy="220" r="20"/>
<circle opacity="0.08" fill="#FFFFFF" cx="350" cy="20" r="8"/>
<circle opacity="0.05" fill="#FFFFFF" cx="370" cy="590" r="28"/>
<circle opacity="0.05" fill="#FFFFFF" cx="370" cy="280" r="14"/>
<circle opacity="0.05" fill="#FFFFFF" cx="380" cy="30" r="18"/>
<circle opacity="0.03" fill="#FFFFFF" cx="400" cy="302" r="32"/>
<circle opacity="0.1" fill="#FFFFFF" cx="410" cy="200" r="20"/>
<circle opacity="0.1" fill="#FFFFFF" cx="420" cy="160" r="40"/>
<circle opacity="0.1" fill="#FFFFFF" cx="440" cy="60" r="8"/>
<circle opacity="0.05" fill="#FFFFFF" cx="460" cy="560" r="54"/>
<circle opacity="0.1" fill="#FFFFFF" cx="480" cy="390" r="18"/>
<circle opacity="0.05" fill="#FFFFFF" cx="488" cy="240" r="28"/>
<circle opacity="0.1" fill="#FFFFFF" cx="500" cy="100" r="60"/>
<circle opacity="0.05" fill="#FFFFFF" cx="528" cy="250" r="42"/>
<circle opacity="0.06" fill="#FFFFFF" cx="540" cy="418" r="28"/>
<circle opacity="0.08" fill="#FFFFFF" cx="600" cy="400" r="14"/>
<circle opacity="0.03" fill="#FFFFFF" cx="630" cy="40" r="42"/>
<circle opacity="0.06" fill="#FFFFFF" cx="660" cy="0" r="50"/>
<circle opacity="0.05" fill="#FFFFFF" cx="700" cy="300" r="60"/>
<circle opacity="0.04" fill="#FFFFFF" cx="726" cy="58" r="44"/>
<circle opacity="0.06" fill="#FFFFFF" cx="780" cy="0" r="30"/>
<circle opacity="0.08" fill="#FFFFFF" cx="794" cy="100" r="60"/>
<circle opacity="0.06" fill="#FFFFFF" cx="800" cy="0" r="24"/>
<circle opacity="0.06" fill="#FFFFFF" cx="894" cy="0" r="40"/>
<circle opacity="0.1" fill="#FFFFFF" cx="900" cy="140" r="14"/>
<circle opacity="0.1" fill="#FFFFFF" cx="986" cy="80" r="52"/>
<circle opacity="0.05" fill="#FFFFFF" cx="1090" cy="44" r="54"/>
<circle opacity="0.03" fill="#FFFFFF" cx="1200" cy="520" r="14"/>
<circle opacity="0.03" fill="#FFFFFF" cx="1280" cy="560" r="58"/>
<circle opacity="0.1" fill="#FFFFFF" cx="1280" cy="360" r="36"/>
<circle opacity="0.1" fill="#FFFFFF" cx="1360" cy="300" r="58"/>
<circle opacity="0.03" fill="#FFFFFF" cx="1400" cy="560" r="14"/>
<circle opacity="0.1" fill="#FFFFFF" cx="1600" cy="100" r="54"/>
<circle opacity="0.1" fill="#FFFFFF" cx="1600" cy="100" r="54"/>
</svg>